<svg width="26" height="26" viewBox="0 0 26 26" fill="none" xmlns="http://www.w3.org/2000/svg">
<path d="M25.3564 5.28922C25.7069 5.28922 25.9936 5.00245 26 4.65196V0.643628C26 0.286765 25.7132 0 25.3564 0H21.348C20.9976 0 20.7108 0.286765 20.7108 0.643628V2.03922H5.28922V0.643628C5.28922 0.293137 5.00245 0.00637255 4.65196 0H0.643628C0.293137 0 0.00637255 0.286765 0 0.643628V4.65196C0 5.00245 0.286765 5.28922 0.643628 5.28922H2.03922V20.7108H0.643628C0.293137 20.7108 0.00637255 20.9976 0 21.348V25.3564C0 25.7069 0.286765 25.9936 0.643628 26H4.65196C5.00245 26 5.28922 25.7132 5.28922 25.3564V23.9608H20.7108V25.3564C20.7108 25.7069 20.9976 25.9936 21.348 26H25.3564C25.7069 26 25.9936 25.7132 26 25.3564V21.348C26 20.9976 25.7132 20.7108 25.3564 20.7108H23.9608V5.28922H25.3564ZM1.27451 4.01471V1.27451H4.01471V4.01471H1.27451ZM4.01471 24.7255H1.27451V21.9853H4.01471V24.7255ZM20.7108 21.348V22.6863H5.28922V21.348C5.28922 20.9976 5.00245 20.7108 4.65196 20.7108H3.31373V5.28922H4.65196C5.00245 5.28922 5.28922 5.00245 5.28922 4.65196V3.31373H20.7108V4.65196C20.7108 5.00245 20.9976 5.28922 21.348 5.28922H22.6863V20.7108H21.348C20.9976 20.7108 20.7108 20.9976 20.7108 21.348ZM24.7255 21.9853V24.7255H21.9853V21.9853H24.7255ZM21.9853 4.01471V1.27451H24.7255V4.01471H21.9853Z" fill="#A4A4A4"/>
</svg>
