<svg width="25" height="13" viewBox="0 0 25 13" fill="none" xmlns="http://www.w3.org/2000/svg">
<path d="M18.2289 0.733013C17.8484 1.11529 17.8499 1.7336 18.2322 2.11407L21.6581 5.52344L0.976562 5.52344C0.437207 5.52344 -2.88235e-07 5.96065 -2.64659e-07 6.5C-2.41083e-07 7.03936 0.437207 7.47657 0.976562 7.47657L21.6581 7.47657L18.2321 10.8859C17.8499 11.2664 17.8484 11.8847 18.2289 12.267C18.6094 12.6493 19.2277 12.6507 19.61 12.2703L24.7127 7.19219C24.713 7.1919 24.7133 7.19156 24.7136 7.19126C25.0949 6.81079 25.0961 6.19048 24.7136 5.80874C24.7133 5.80845 24.713 5.80811 24.7127 5.80782L19.61 0.729694C19.2278 0.349322 18.6094 0.35064 18.2289 0.733013Z" fill="#5F5F5F"/>
</svg>
