<svg width="42" height="42" viewBox="0 0 42 42" fill="none" xmlns="http://www.w3.org/2000/svg">
<path d="M1.4 15.3991L0.588 14.2595L0 14.6795V15.3991H1.4ZM21 1.39914L21.812 0.259537C21.5749 0.0907192 21.2911 0 21 0C20.7089 0 20.4251 0.0907192 20.188 0.259537L21 1.39914ZM40.6 15.3991H42V14.6795L41.412 14.2595L40.6 15.3991ZM7 23.7991V22.3991H5.6V23.7991H7ZM18.2 23.7991H19.6V22.3991H18.2V23.7991ZM2.8 41.9991V15.3991H0V41.9991H2.8ZM2.212 16.5387L21.812 2.53874L20.188 0.259537L0.588 14.2595L2.212 16.5387ZM20.188 2.53874L39.788 16.5387L41.412 14.2595L21.812 0.259537L20.188 2.53874ZM39.2 15.3991V41.9991H42V15.3991H39.2ZM8.4 41.9991V23.7991H5.6V41.9991H8.4ZM7 25.1991H18.2V22.3991H7V25.1991ZM16.8 23.7991V41.9991H19.6V23.7991H16.8ZM14 33.5991H18.2V30.7991H14V33.5991ZM30.8 22.3991V33.5991H33.6V22.3991H30.8ZM36.4 5.59914V12.5991H39.2V5.59914H36.4Z" fill="white"/>
</svg>
