<svg width="38" height="34" viewBox="0 0 38 34" fill="none" xmlns="http://www.w3.org/2000/svg">
<path d="M2.49999 0.5H35.5C35.9862 0.5 36.4525 0.693154 36.7964 1.03697C37.1402 1.38079 37.3333 1.8471 37.3333 2.33333V31.6667C37.3333 32.1529 37.1402 32.6192 36.7964 32.963C36.4525 33.3068 35.9862 33.5 35.5 33.5H2.49999C2.01376 33.5 1.54744 33.3068 1.20363 32.963C0.859811 32.6192 0.666656 32.1529 0.666656 31.6667V2.33333C0.666656 1.8471 0.859811 1.38079 1.20363 1.03697C1.54744 0.693154 2.01376 0.5 2.49999 0.5ZM4.33332 4.16667V29.8333H33.6667V4.16667H4.33332ZM12.5833 20.6667H22.6667C22.9098 20.6667 23.1429 20.5701 23.3148 20.3982C23.4867 20.2263 23.5833 19.9931 23.5833 19.75C23.5833 19.5069 23.4867 19.2737 23.3148 19.1018C23.1429 18.9299 22.9098 18.8333 22.6667 18.8333H15.3333C14.1177 18.8333 12.952 18.3504 12.0924 17.4909C11.2329 16.6314 10.75 15.4656 10.75 14.25C10.75 13.0344 11.2329 11.8686 12.0924 11.0091C12.952 10.1496 14.1177 9.66667 15.3333 9.66667H17.1667V6H20.8333V9.66667H25.4167V13.3333H15.3333C15.0902 13.3333 14.857 13.4299 14.6851 13.6018C14.5132 13.7737 14.4167 14.0069 14.4167 14.25C14.4167 14.4931 14.5132 14.7263 14.6851 14.8982C14.857 15.0701 15.0902 15.1667 15.3333 15.1667H22.6667C23.8822 15.1667 25.048 15.6496 25.9076 16.5091C26.7671 17.3686 27.25 18.5344 27.25 19.75C27.25 20.9656 26.7671 22.1314 25.9076 22.9909C25.048 23.8504 23.8822 24.3333 22.6667 24.3333H20.8333V28H17.1667V24.3333H12.5833V20.6667Z" fill="#222226"/>
</svg>
