<svg width="38" height="40" viewBox="0 0 38 40" fill="none" xmlns="http://www.w3.org/2000/svg">
<path fill-rule="evenodd" clip-rule="evenodd" d="M30.2875 6.53033L31.6 4.50033L33.725 5.88533L34.935 4.01033L28.8175 0.027832L27.61 1.90283L29.7325 3.28533L28.4525 5.25533C25.538 3.45537 22.1806 2.50069 18.755 2.49783C8.46751 2.49783 0.102509 10.8803 0.102509 21.1878C0.102509 31.4878 8.46751 39.8728 18.755 39.8728C29.0375 39.8728 37.4075 31.4878 37.4075 21.1878C37.4068 18.3652 36.7656 15.5796 35.5323 13.0407C34.299 10.5018 32.5057 8.27578 30.2875 6.53033ZM18.755 35.0278C11.1375 35.0278 4.93751 28.8078 4.93751 21.1678C4.93751 13.5228 11.1375 7.30533 18.755 7.30533C26.3725 7.30533 32.5725 13.5228 32.5725 21.1678C32.5725 28.8053 26.3725 35.0278 18.755 35.0278Z" fill="#222226"/>
<path fill-rule="evenodd" clip-rule="evenodd" d="M17.5 10H20V22.5H17.5V10Z" fill="#222226"/>
<path fill-rule="evenodd" clip-rule="evenodd" d="M17.5 20H25V22.5H17.5V20Z" fill="#222226"/>
</svg>
