<svg width="46" height="46" viewBox="0 0 46 46" fill="none" xmlns="http://www.w3.org/2000/svg">
<path d="M35.2188 15.8125C36.4096 15.8125 37.375 14.8471 37.375 13.6562C37.375 12.4654 36.4096 11.5 35.2188 11.5C34.0279 11.5 33.0625 12.4654 33.0625 13.6562C33.0625 14.8471 34.0279 15.8125 35.2188 15.8125Z" fill="white"/>
<path d="M25.0326 31.625H17.25V23.8424L25.9181 15.1743C25.8899 14.9088 25.8755 14.642 25.875 14.375C25.875 12.6691 26.3808 11.0016 27.3286 9.58321C28.2763 8.16484 29.6233 7.05935 31.1994 6.40654C32.7754 5.75374 34.5096 5.58293 36.1827 5.91573C37.8557 6.24853 39.3926 7.06998 40.5988 8.27621C41.805 9.48244 42.6265 11.0193 42.9593 12.6924C43.2921 14.3654 43.1213 16.0996 42.4685 17.6756C41.8157 19.2517 40.7102 20.5987 39.2918 21.5464C37.8734 22.4942 36.2059 23 34.5 23C34.233 22.9995 33.9662 22.9851 33.7007 22.9569L25.0326 31.625ZM20.125 28.75H23.8424L32.7117 19.8806L33.4564 20.0172C33.8002 20.0854 34.1495 20.1215 34.5 20.125C35.7023 20.1398 36.8797 19.782 37.8704 19.1007C38.8612 18.4193 39.6167 17.448 40.0331 16.32C40.4496 15.192 40.5066 13.9628 40.1963 12.8011C39.886 11.6394 39.2236 10.6024 38.3002 9.8323C37.3767 9.06224 36.2375 8.597 35.0389 8.50048C33.8404 8.40396 32.6414 8.68091 31.6066 9.29327C30.5719 9.90563 29.7521 10.8234 29.2599 11.9204C28.7677 13.0175 28.6272 14.24 28.8578 15.4201L28.9944 16.1633L20.125 25.0326V28.75Z" fill="white"/>
<path d="M40.25 25.875V37.375H14.375V8.625H20.125V5.75H5.75C4.98774 5.75076 4.25691 6.05391 3.71791 6.59291C3.17891 7.13191 2.87576 7.86274 2.875 8.625V37.375C2.87576 38.1373 3.17891 38.8681 3.71791 39.4071C4.25691 39.9461 4.98774 40.2492 5.75 40.25H40.25C41.0123 40.2492 41.7431 39.9461 42.2821 39.4071C42.8211 38.8681 43.1242 38.1373 43.125 37.375V25.875H40.25ZM5.75 8.625H11.5V37.375H5.75V8.625Z" fill="white"/>
</svg>
