<svg width="91" height="73" viewBox="0 0 91 73" fill="none" xmlns="http://www.w3.org/2000/svg">
<path d="M39.7697 38.0961C34.3637 40.3404 30.8707 45.6041 30.8707 51.5063C30.8707 59.4984 37.31 66.0002 45.2251 66.0002C53.1402 66.0002 59.5795 59.4984 59.5795 51.5063C59.5795 47.8692 58.2396 44.3909 55.8066 41.7123C53.3858 39.047 50.0954 37.3991 46.5415 37.0726C45.8068 37.0049 45.1595 37.545 45.0921 38.278C45.0248 39.0111 45.5645 39.6599 46.2975 39.7273C52.3497 40.2836 56.9136 45.3475 56.9136 51.5063C56.9136 58.0282 51.6702 63.3344 45.2251 63.3344C38.7799 63.3344 33.5365 58.0282 33.5365 51.5063C33.5365 46.6854 36.3844 42.3878 40.7917 40.5581C41.4717 40.2759 41.7941 39.4959 41.5117 38.8159C41.2297 38.1361 40.4498 37.8136 39.7697 38.0961Z" fill="white"/>
<path d="M38.5759 51.5065C38.5759 55.2044 41.5586 58.2126 45.2251 58.2126C48.8915 58.2126 51.8744 55.2043 51.8744 51.5065C51.8744 47.8088 48.8915 44.8003 45.2251 44.8003C41.5586 44.8003 38.5759 47.8086 38.5759 51.5065ZM45.2251 47.466C47.4215 47.466 49.2086 49.2784 49.2086 51.5064C49.2086 53.7341 47.4215 55.5466 45.2251 55.5466C43.0287 55.5466 41.2417 53.7341 41.2417 51.5064C41.2417 49.2786 43.0286 47.466 45.2251 47.466Z" fill="white"/>
<path d="M90.0278 2.39159C89.076 1.08212 87.6062 0.331055 85.9953 0.331055H5.0049C3.39401 0.331055 1.92424 1.08212 0.972348 2.39159C0.00872917 3.71723 -0.253591 5.37308 0.252922 6.93492C0.191785 6.80359 3.3391 14.6393 3.41907 14.8458C4.32635 17.6094 6.1203 19.8794 8.41969 21.3823V36.6756C8.41969 44.5312 10.9055 51.9952 15.6086 58.2607C20.1562 64.319 26.6284 68.8735 33.833 71.0853C34.5177 71.301 35.2843 70.9124 35.4984 70.2022C35.7144 69.4984 35.3191 68.7528 34.6153 68.5367C31.2089 67.491 28.0742 65.9471 25.2775 64.0003L28.3082 47.4082C29.8319 39.0671 37.0238 33.0133 45.4092 33.0133C53.7937 33.0133 60.9856 39.0665 62.5098 47.4066L65.559 64.0913C60.1437 67.8342 53.5886 69.9987 46.5916 69.9987C44.618 70.0081 42.3804 70.0195 40.4381 69.7648C39.708 69.6756 39.044 70.2 38.9573 70.9312C38.8706 71.6623 39.3927 72.3253 40.1237 72.412C42.1753 72.68 44.5081 72.6766 46.5914 72.6647C64.0187 72.6647 78.9125 60.237 82.0059 43.1144C82.1367 42.39 81.6556 41.6965 80.9312 41.5657C80.2065 41.4349 79.5133 41.9162 79.3825 42.6406C77.9485 50.5782 73.7746 57.426 67.9387 62.2853L65.1321 46.9274C63.3764 37.3204 55.0816 30.3476 45.409 30.3476C35.7357 30.3476 27.4408 37.3211 25.6857 46.9294L22.8996 62.1822C15.5461 56.0065 11.0854 46.797 11.0854 36.6758V22.6941C12.3589 23.1384 13.7194 23.3785 15.1249 23.3785H75.8753C77.2806 23.3785 78.6411 23.1382 79.9146 22.6941V36.6758C79.9146 37.4121 80.5114 38.0087 81.2476 38.0087C81.9837 38.0087 82.5805 37.4121 82.5805 36.6758V21.3825C84.8799 19.8798 86.6738 17.6096 87.5811 14.8459C87.6878 14.5719 90.7686 6.90489 90.7473 6.9351C91.2538 5.37326 90.9915 3.71723 90.0278 2.39159ZM85.0596 13.9795C84.2904 16.3514 82.6935 18.2641 80.6558 19.4364C79.2276 20.2555 77.598 20.7123 75.8753 20.7126H15.1247C13.4521 20.7126 11.8594 20.2799 10.4656 19.5046C8.33758 18.3254 6.68955 16.3427 5.90987 13.8949L3.72671 8.44593H13.5097C14.2458 8.44593 14.8426 7.84931 14.8426 7.113C14.8426 6.37669 14.2458 5.78007 13.5097 5.78007H2.70658C2.59355 5.14187 2.73999 4.49353 3.12849 3.95929C3.57298 3.34792 4.25686 2.99709 5.0049 2.99709H85.9953C86.7431 2.99709 87.427 3.34792 87.8717 3.95929C88.2602 4.49371 88.4066 5.14187 88.2936 5.78007H19.73C18.9939 5.78007 18.3971 6.37669 18.3971 7.113C18.3971 7.84931 18.9939 8.44593 19.73 8.44593H87.2733C87.2312 8.55914 85.0953 13.867 85.0596 13.9795Z" fill="white"/>
<path d="M75.8019 10.5503C73.5969 10.5503 71.8032 12.3442 71.8032 14.5491C71.8032 16.7539 73.5969 18.5479 75.8019 18.5479C78.007 18.5479 79.8007 16.7539 79.8007 14.5491C79.8007 12.3442 78.007 10.5503 75.8019 10.5503ZM75.8019 15.882C75.0669 15.882 74.469 15.2842 74.469 14.5491C74.469 13.814 75.0669 13.2162 75.8019 13.2162C76.537 13.2162 77.1349 13.814 77.1349 14.5491C77.1349 15.2842 76.537 15.882 75.8019 15.882Z" fill="white"/>
<path d="M65.1385 10.5503C62.9335 10.5503 61.1397 12.3442 61.1397 14.5491C61.1397 16.7539 62.9335 18.5479 65.1385 18.5479C67.3435 18.5479 69.1373 16.7539 69.1373 14.5491C69.1373 12.3442 67.3435 10.5503 65.1385 10.5503ZM65.1385 15.882C64.4034 15.882 63.8056 15.2842 63.8056 14.5491C63.8056 13.814 64.4034 13.2162 65.1385 13.2162C65.8736 13.2162 66.4714 13.814 66.4714 14.5491C66.4714 15.2842 65.8736 15.882 65.1385 15.882Z" fill="white"/>
</svg>
