<svg width="83" height="83" viewBox="0 0 83 83" fill="none" xmlns="http://www.w3.org/2000/svg">
<path d="M75.5443 72.1055L66.8364 60.9105C69.6581 60.0675 72.0955 58.263 73.7254 55.8103C75.7761 52.2657 74.8488 47.9397 73.9515 43.761C73.409 41.6145 73.0843 39.4186 72.9827 37.2069C73.084 34.9933 73.4085 32.7954 73.9515 30.647C74.8431 26.4656 75.7761 22.1424 73.7254 18.6034C71.6018 14.9343 67.3259 13.5762 63.1902 12.2654C61.1314 11.6982 59.1377 10.9174 57.2414 9.93567C55.5205 8.81946 53.9228 7.52438 52.4746 6.07188C49.4064 3.22412 45.9276 0 41.5 0C37.0724 0 33.5935 3.22412 30.5239 6.07045C29.0763 7.52331 27.4789 8.81893 25.7586 9.93567C23.8625 10.9154 21.8692 11.6942 19.8112 12.2597C15.6755 13.5705 11.3996 14.9286 9.27593 18.5977C7.22526 22.1424 8.15257 26.4684 9.04983 30.647C9.59237 32.7956 9.9165 34.9933 10.0172 37.2069C9.91597 39.4205 9.59148 41.6184 9.0484 43.7668C8.15687 47.9482 7.22383 52.2714 9.2745 55.8103C10.9066 58.2639 13.3467 60.0678 16.1707 60.9091L7.45566 72.1041C6.97054 72.728 7.08305 73.6271 7.70716 74.1122C8.00696 74.3453 8.3869 74.4496 8.76362 74.4023L18.9955 73.1244L21.5213 81.9625C21.6692 82.4805 22.0957 82.8716 22.6246 82.9742C22.7142 82.9912 22.8053 83 22.8965 83C23.3384 83.0004 23.7557 82.7964 24.027 82.4476L33.1656 70.6931C35.4145 72.8824 38.3685 74.2013 41.5 74.4138C44.6314 74.2013 47.5854 72.8824 49.8343 70.6931L58.9729 82.4433C59.2434 82.7937 59.6607 82.9993 60.1034 83C60.1947 83 60.2857 82.9912 60.3753 82.9742C60.9043 82.8716 61.3307 82.4805 61.4786 81.9625L64.0044 73.1259L74.2363 74.4038C75.0205 74.5022 75.736 73.9462 75.8344 73.162C75.8817 72.7853 75.7774 72.4053 75.5443 72.1055ZM23.4976 78.465L21.4097 71.1582C21.2156 70.4804 20.5566 70.045 19.857 70.1321L11.8432 71.1339L19.0256 61.9008L19.8169 62.1541C21.873 62.7199 23.8643 63.4988 25.7586 64.4781C27.4794 65.5943 29.0772 66.8894 30.5254 68.3419L31.0176 68.797L23.4976 78.465ZM41.5 71.5517C38.1943 71.5517 35.4138 68.9759 32.4687 66.2454C30.8665 64.6447 29.0967 63.2213 27.1896 61.9996C25.1148 60.9134 22.9307 60.05 20.6741 59.4237C16.8919 58.2231 13.3186 57.0897 11.7502 54.3793C10.2533 51.7906 11.0261 48.1829 11.8461 44.3621C12.4362 42.0189 12.7825 39.6212 12.8793 37.2069C12.783 34.7926 12.4373 32.3949 11.8475 30.0517C11.0275 26.2323 10.2548 22.6247 11.7516 20.0345C13.3258 17.3241 16.8933 16.1907 20.6756 14.9901C22.9318 14.3637 25.1152 13.5002 27.1896 12.4142C29.0961 11.1925 30.8656 9.76896 32.4673 8.16834C35.4138 5.43793 38.1943 2.86207 41.5 2.86207C44.8057 2.86207 47.5862 5.43793 50.5312 8.16834C52.1335 9.76914 53.9033 11.1925 55.8103 12.4142C57.8851 13.5004 60.0693 14.3638 62.3258 14.9901C66.1081 16.1907 69.6813 17.3241 71.2498 20.0345C72.7466 22.6232 71.9739 26.2309 71.1539 30.0517C70.5638 32.3949 70.2174 34.7926 70.1207 37.2069C70.2169 39.6212 70.5627 42.0189 71.1524 44.3621C71.9724 48.1815 72.7452 51.7891 71.2483 54.3793C69.6742 57.0897 66.1066 58.2231 62.3244 59.4237C60.0682 60.0501 57.8848 60.9136 55.8103 61.9996C53.9038 63.2213 52.1343 64.6448 50.5327 66.2454C47.5862 68.9759 44.8057 71.5517 41.5 71.5517ZM63.1501 70.1321C62.4505 70.045 61.7915 70.4804 61.5974 71.1582L59.5024 78.465L51.9837 68.7984L52.476 68.3433C53.9237 66.8905 55.5211 65.5949 57.2414 64.4781C59.1375 63.4984 61.1307 62.7196 63.1887 62.1541L63.9801 61.9008L71.1639 71.1339L63.1501 70.1321Z" fill="white"/>
<path d="M41.5 11.4482C27.2739 11.4482 15.7413 22.9808 15.7413 37.2069C15.7413 51.433 27.2739 62.9655 41.5 62.9655C55.726 62.9655 67.2586 51.433 67.2586 37.2069C67.2421 22.9876 55.7192 11.4649 41.5 11.4482ZM41.5 60.1034C28.8546 60.1034 18.6034 49.8522 18.6034 37.2069C18.6034 24.5615 28.8546 14.3103 41.5 14.3103C54.1453 14.3103 64.3965 24.5615 64.3965 37.2069C64.3815 49.8461 54.1392 60.0884 41.5 60.1034Z" fill="white"/>
<path d="M58.0114 31.2297C57.4729 30.49 56.6136 30.0523 55.6988 30.0519H46.938L44.2191 21.7133C43.7255 20.2116 42.1081 19.3945 40.6064 19.888C39.7426 20.1719 39.065 20.8495 38.7811 21.7133L36.0693 30.0519H27.3014C25.7206 30.0512 24.4386 31.3318 24.4379 32.9126C24.4373 33.8284 24.8752 34.689 25.6156 35.228L32.7078 40.3797L29.9989 48.7184C29.5102 50.2217 30.3328 51.8364 31.836 52.3249C32.7076 52.6083 33.6621 52.4569 34.4036 51.9181L41.5001 46.7679L48.5937 51.9196C49.5929 52.6619 50.9603 52.6619 51.9595 51.9196C52.9736 51.1989 53.3957 49.8988 52.9984 48.7198L50.2895 40.3797L57.3817 35.228C58.6598 34.2978 58.9417 32.5076 58.0114 31.2297ZM47.7652 38.6768C47.2632 39.0415 47.0534 39.6882 47.2457 40.2781L50.2766 49.6056L42.3415 43.8414C41.8401 43.4774 41.1615 43.4774 40.6601 43.8414L32.725 49.6056L35.7545 40.2781C35.9461 39.6885 35.7364 39.0428 35.235 38.6782L27.3014 32.914H37.1082C37.7282 32.914 38.2776 32.5147 38.4692 31.9252L41.5001 22.5977L44.531 31.9237C44.7226 32.5133 45.2719 32.9126 45.8919 32.9126L55.6988 32.914L47.7652 38.6768Z" fill="white"/>
</svg>
