<svg width="63" height="63" viewBox="0 0 63 63" fill="none" xmlns="http://www.w3.org/2000/svg">
<g clip-path="url(#clip0)">
<path d="M58.1301 0.00292969H4.86982C2.18469 0.00292969 0 2.18762 0 4.87275V36.4343C0 39.1196 2.18469 41.3041 4.86982 41.3041H24.6574V48.9878C24.6574 49.2543 24.7939 49.479 24.9091 49.7093C24.9966 49.8843 25.084 50.0594 25.1715 50.2343C26.8282 53.5478 29.3255 56.4247 32.5938 58.785C35.6021 60.9575 38.4143 62.0697 39.8229 62.5393C40.0853 62.6267 40.3481 62.7127 40.6099 62.8017C40.8541 62.8848 41.1004 62.9936 41.3627 62.9954C41.6179 62.9971 41.857 62.8916 42.0938 62.8095C42.3625 62.7162 42.6333 62.6292 42.9032 62.5393C44.3117 62.0697 47.1239 60.9576 50.1322 58.785C53.4005 56.4247 55.8979 53.5479 57.5546 50.2341C57.6421 50.0592 57.7295 49.8841 57.817 49.7092C57.9322 49.4788 58.0687 49.2541 58.0687 48.9878V41.3041H58.1303C60.8156 41.3041 63.0001 39.1195 63.0001 36.4343V4.87275C62.9999 2.18762 60.8152 0.00292969 58.1301 0.00292969ZM56.219 48.7696L55.9002 49.4074C54.3781 52.4513 52.0731 55.1021 49.0491 57.2861C46.2406 59.3145 43.6264 60.3491 42.318 60.7851C42.1513 60.8408 41.9846 60.8955 41.8179 60.9509C41.73 60.98 41.6406 61.0069 41.5548 61.0414C41.4855 61.0694 41.4208 61.108 41.3433 61.1017C41.2701 61.0959 41.2052 61.0547 41.1382 61.0283C41.0618 60.9981 40.9817 60.9761 40.9037 60.9504C40.7382 60.896 40.5732 60.8401 40.4078 60.785C39.0994 60.3489 36.4853 59.3145 33.6765 57.2859C30.6525 55.102 28.3475 52.4512 26.8255 49.4073L26.5067 48.7696V29.0712L30.4825 30.3966C31.3769 30.6947 32.3181 30.8459 33.2798 30.8459C36.7523 30.8458 39.522 28.8939 39.5584 28.8672L41.369 27.5093L43.1731 28.8713C43.1784 28.8752 43.1838 28.8791 43.1892 28.8831C43.2164 28.9026 45.9504 30.8459 49.4459 30.8459C50.4073 30.8459 51.3486 30.6947 52.2434 30.3966L56.2189 29.0713V48.7696H56.219ZM61.1506 15.7838H51.2876C50.7768 15.7838 50.3629 16.1977 50.3629 16.7085C50.3629 17.2192 50.7768 17.6332 51.2876 17.6332H61.1506V36.4345C61.1506 38.0999 59.7957 39.4549 58.1301 39.4549H58.0684V27.7885C58.0684 27.1683 57.4408 26.7148 56.8514 26.9113L51.6588 28.6422C50.9529 28.8773 50.2083 28.9967 49.446 28.9967C46.67 28.9967 44.3828 27.4594 44.2753 27.3861L41.9281 25.6142C41.5994 25.366 41.1461 25.3653 40.8162 25.6125L38.4636 27.377C38.3373 27.4636 36.056 28.9967 33.2802 28.9968C32.5175 28.9968 31.7731 28.8775 31.0676 28.6423L25.8749 26.9114C25.2856 26.7152 24.6578 27.1683 24.6578 27.7886V39.455H4.86982C3.20438 39.455 1.84927 38.1001 1.84927 36.4345V17.6332H46.7875C47.2983 17.6332 47.7122 17.2192 47.7122 16.7085C47.7122 16.1977 47.2983 15.7838 46.7875 15.7838H1.84927V9.74281H61.1505V15.7838H61.1506ZM61.1506 7.89329H1.84927V4.87275C1.84927 3.20719 3.20438 1.8522 4.86982 1.8522H58.1299C59.7955 1.8522 61.1505 3.20719 61.1505 4.87275V7.89329H61.1506Z" fill="white"/>
<path d="M17.6918 27.6201H4.8698C4.35916 27.6201 3.94511 28.034 3.94511 28.5448C3.94511 29.0556 4.35916 29.4695 4.8698 29.4695H17.6918C18.2024 29.4695 18.6165 29.0556 18.6165 28.5448C18.6163 28.034 18.2024 27.6201 17.6918 27.6201Z" fill="white"/>
<path d="M28.541 19.7295H4.8698C4.35916 19.7295 3.94511 20.1434 3.94511 20.6542V24.5994C3.94511 25.1102 4.35916 25.5241 4.8698 25.5241H28.541C29.0517 25.5241 29.4657 25.1102 29.4657 24.5994V20.6542C29.4657 20.1435 29.0517 19.7295 28.541 19.7295ZM27.6163 23.6747H5.7945V21.5789H27.6163V23.6747Z" fill="white"/>
<path d="M52.9061 32.3853C47.0609 34.3337 41.9685 30.5881 41.9178 30.5502C41.5891 30.3036 41.1369 30.3036 40.8082 30.5502C40.7573 30.5883 35.6657 34.334 29.8198 32.3853C29.2306 32.1892 28.6028 32.6422 28.6028 33.2625V48.057C28.6028 48.2005 28.6361 48.3422 28.7005 48.4706C32.2429 55.5555 39.6264 58.3158 41.0706 58.7972C41.2594 58.8601 41.4667 58.8601 41.6555 58.7972C43.0997 58.3159 50.4832 55.5556 54.0256 48.4706C54.0898 48.3421 54.1233 48.2006 54.1233 48.057V33.2625C54.1232 32.6422 53.4955 32.189 52.9061 32.3853ZM52.274 47.8354C49.2159 53.7481 43.167 56.2939 41.363 56.9413C39.5589 56.294 33.5099 53.7481 30.4521 47.8354V34.479C35.5005 35.6169 39.8632 33.3272 41.363 32.3975C42.5755 33.1492 45.6577 34.7897 49.4615 34.7895C50.3632 34.7894 51.3066 34.6971 52.2742 34.4788V47.8354H52.274Z" fill="white"/>
<path d="M49.0899 38.5843C49.09 38.5842 49.0899 38.5842 49.0899 38.5841C48.2169 37.587 46.6949 37.4856 45.6975 38.358L39.7581 43.5552L38.3547 41.6839C37.5691 40.6359 36.0377 40.4159 34.989 41.203C33.9408 41.9887 33.7216 43.5199 34.5082 44.5687L37.4669 48.5138C38.2937 49.6165 39.9356 49.7886 40.9734 48.8809L48.8639 41.9767C49.8614 41.1038 49.9628 39.582 49.0899 38.5843ZM47.6461 40.5849L39.7558 47.489C39.5165 47.6984 39.1375 47.6594 38.9466 47.4044L35.9877 43.4592C35.808 43.2196 35.8591 42.862 36.0987 42.6824C36.3382 42.5029 36.6957 42.5539 36.8752 42.7934L38.8769 45.4623C39.1949 45.8863 39.8263 45.9526 40.2254 45.6034L46.9151 39.7498C47.1401 39.553 47.5011 39.5768 47.6981 39.8019C47.8951 40.0271 47.8711 40.3881 47.6461 40.5849Z" fill="white"/>
</g>
<defs>
<clipPath id="clip0">
<rect width="63" height="63" fill="white"/>
</clipPath>
</defs>
</svg>
