<svg width="62" height="62" viewBox="0 0 62 62" fill="none" xmlns="http://www.w3.org/2000/svg">
<path d="M58.6453 36.9419H58.085V13.3857C58.085 11.5355 56.5803 10.0302 54.7307 10.0302H54.1713V0.908203C54.1713 0.406633 53.7647 0 53.2631 0H8.73691C6.07806 0 3.91496 2.1637 3.91496 4.82316V11.4817C1.48764 13.0924 0 15.8364 0 18.7671V30.7554V53.2631C0 58.0807 3.91932 62 8.73691 62H45.4768C45.9783 62 46.385 61.5934 46.385 61.0918C46.385 60.5902 45.9783 60.1836 45.4768 60.1836H8.73691C4.92089 60.1836 1.81641 57.0791 1.81641 53.2631V30.7554V24.0944C3.41545 26.1668 5.92294 27.504 8.73691 27.504H54.7307C55.5786 27.504 56.2686 28.1945 56.2686 29.0431V36.9419H51.3058C47.5674 36.9419 44.5261 39.9833 44.5261 43.7217C44.5261 47.4602 47.5674 50.5015 51.3058 50.5015H56.2686V58.6457C56.2686 59.4937 55.5788 60.1836 54.7307 60.1836H49.715C49.2135 60.1836 48.8068 60.5902 48.8068 61.0918C48.8068 61.5934 49.2135 62 49.715 62H54.7307C56.5802 62 58.085 60.4953 58.085 58.6457V50.5015H58.6453C60.495 50.5015 62 48.9966 62 47.1468V40.2966C62 38.4469 60.495 36.9419 58.6453 36.9419ZM54.7307 11.8466C55.5786 11.8466 56.2686 12.5371 56.2686 13.3857V22.1484C55.8076 21.9096 55.285 21.7737 54.731 21.7737H54.1713V11.8466H54.7307ZM54.7307 25.6876H8.73691C4.92089 25.6876 1.81641 22.5831 1.81641 18.7671C1.81641 16.8825 2.59371 15.0955 3.91496 13.8067V18.7671C3.91496 21.4266 6.07806 23.5903 8.73691 23.5903H14.4017C14.9032 23.5903 15.3099 23.1836 15.3099 22.6821C15.3099 22.1805 14.9032 21.7739 14.4017 21.7739H8.73691C7.07963 21.7739 5.73137 20.425 5.73137 18.7671V8.58966C6.55626 9.24926 7.60093 9.645 8.73691 9.645H42.0801C42.5816 9.645 42.9883 9.23836 42.9883 8.73679C42.9883 8.23522 42.5816 7.82859 42.0801 7.82859H8.73691C7.07963 7.82859 5.73137 6.48033 5.73137 4.82304C5.73137 3.16527 7.07963 1.81641 8.73691 1.81641H52.3549V3.91436H8.73691C8.23534 3.91436 7.82871 4.32099 7.82871 4.82256C7.82871 5.32413 8.23534 5.73076 8.73691 5.73076H52.3549V7.82871H46.3184C45.8168 7.82871 45.4102 8.23534 45.4102 8.73691C45.4102 9.23848 45.8168 9.64512 46.3184 9.64512H52.3549V21.7739H50.2568V18.7676C50.2568 18.266 49.8502 17.8594 49.3486 17.8594C46.4769 17.8594 44.1406 15.5231 44.1406 12.6514C44.1406 12.1498 43.734 11.7432 43.2324 11.7432H11.9174C11.4159 11.7432 11.0092 12.1498 11.0092 12.6514C11.0092 13.153 11.4159 13.5596 11.9174 13.5596H42.3827C42.791 16.7079 45.2922 19.2091 48.4405 19.6174V21.774H18.64C18.1384 21.774 17.7318 22.1806 17.7318 22.6822C17.7318 23.1838 18.1384 23.5904 18.64 23.5904L54.731 23.5903C55.5752 23.5903 56.2623 24.2741 56.2686 25.1169V26.0628C55.8076 25.8236 55.2849 25.6876 54.7307 25.6876ZM60.1836 47.1468C60.1836 47.995 59.4935 48.6851 58.6453 48.6851H57.1886C57.1846 48.6851 57.1808 48.6845 57.1768 48.6845C57.1728 48.6845 57.1691 48.685 57.1651 48.6851H51.3058C48.569 48.6851 46.3425 46.4586 46.3425 43.7217C46.3425 40.9849 48.569 38.7585 51.3058 38.7585H57.1756H57.1768C57.1768 38.7585 57.1776 38.7585 57.178 38.7585H58.6453C59.4935 38.7585 60.1836 39.4486 60.1836 40.2967V47.1468Z" fill="white"/>
<path d="M51.3059 40.8564C49.726 40.8564 48.4404 42.1419 48.4404 43.7219C48.4404 45.3019 49.7258 46.5873 51.3059 46.5873C52.8859 46.5873 54.1713 45.3019 54.1713 43.7219C54.1713 42.1419 52.8858 40.8564 51.3059 40.8564ZM51.3059 44.7708C50.7275 44.7708 50.2568 44.3002 50.2568 43.7218C50.2568 43.1433 50.7274 42.6727 51.3059 42.6727C51.8843 42.6727 52.3549 43.1433 52.3549 43.7218C52.3549 44.3002 51.8842 44.7708 51.3059 44.7708Z" fill="white"/>
</svg>
