<svg width="64" height="64" viewBox="0 0 64 64" fill="none" xmlns="http://www.w3.org/2000/svg">
<path d="M13.8146 33.3332C13.449 33.6172 13.3149 34.1291 13.4928 34.5563C13.6535 34.9423 14.0396 35.2012 14.458 35.2012C14.9701 35.2012 15.4135 34.8142 15.491 34.3102C15.6317 33.3928 14.5385 32.771 13.8146 33.3332Z" fill="white"/>
<path d="M22.7879 33.3901C22.1024 34.0233 22.5689 35.2016 23.4979 35.2016C24.0098 35.2016 24.4534 34.8152 24.5308 34.3106C24.6774 33.3536 23.4937 32.7383 22.7879 33.3901Z" fill="white"/>
<path d="M22.0798 37.7602C21.6719 37.352 21.0104 37.3521 20.6025 37.7602C20.1685 38.1942 19.5914 38.4333 18.9774 38.4333C18.3635 38.4333 17.7865 38.1943 17.3524 37.7602C16.9444 37.3521 16.2829 37.352 15.8752 37.7602C15.467 38.1682 15.467 38.8295 15.875 39.2374C16.7037 40.0662 17.8055 40.5225 18.9774 40.5225C20.1494 40.5225 21.2513 40.0662 22.0799 39.2374C22.4879 38.8297 22.4879 38.1682 22.0798 37.7602Z" fill="white"/>
<path d="M56.2671 14.2283C55.0814 9.91815 53.1747 6.52976 50.6 4.15713C50.1758 3.76626 49.515 3.79313 49.1238 4.21738C48.7328 4.64163 48.7598 5.30264 49.1843 5.69364C54.524 10.6141 55.6449 19.7888 55.6449 26.6189C55.6449 33.3222 54.033 38.0913 50.8538 40.794C49.2507 42.157 47.5323 42.73 46.2337 42.9642C48.0392 40.1405 48.9391 36.8316 48.7946 33.4392C48.6972 31.1307 48.5098 29.1879 48.2218 27.4993C47.711 24.5083 46.8566 22.1974 45.6098 20.4343C44.1563 18.3787 42.1205 17.0363 39.5588 16.4448C33.1559 14.967 29.1487 9.76727 27.9735 8.04589C28.8354 4.57063 31.9781 2.0895 35.6003 2.0895H39.5502C39.8974 2.0895 40.2432 2.10888 40.5783 2.147C40.5962 2.14963 40.6142 2.15188 40.6324 2.1535L40.6552 2.15575C40.6703 2.15713 40.6857 2.15838 40.7008 2.15913C43.0015 2.35263 45.0631 2.96126 46.8293 3.96863C47.3306 4.25426 47.9686 4.07988 48.2542 3.57876C48.5402 3.07763 48.3655 2.4395 47.8643 2.15363C45.83 0.993377 43.4757 0.294501 40.8667 0.0762502C40.8531 0.0747502 40.8403 0.0735001 40.8285 0.0725001C40.4106 0.024375 39.9808 0 39.5502 0H35.6003C30.8522 0 26.7544 3.36926 25.8404 8.01414C25.8379 8.02489 25.8357 8.03564 25.8334 8.04627C25.833 8.04839 25.8324 8.05039 25.832 8.05252C25.7114 8.67052 25.6502 9.30889 25.6502 9.94989V20.2255C25.6502 21.2528 25.7742 22.2515 26.0064 23.2085C24.0004 21.8452 21.5804 21.0477 18.9774 21.0477C16.4652 21.0477 14.0411 21.7883 11.9673 23.1893C11.4891 23.5123 11.3634 24.1617 11.6863 24.6398C12.0091 25.1178 12.6584 25.2434 13.1366 24.9205C14.5558 23.9618 16.1723 23.3754 17.8652 23.1963C17.6694 24.7434 17.0485 26.0361 16.0114 27.0487C14.0579 28.9564 11.046 29.5343 9.27776 29.7084C9.70164 28.6471 10.2976 27.6537 11.0536 26.7747C11.4299 26.3373 11.3804 25.6778 10.943 25.3014C10.5056 24.9252 9.84614 24.9747 9.46976 25.4121C7.51626 27.6828 6.44038 30.5851 6.44038 33.5843C6.44038 38.8058 9.64951 43.2913 14.1988 45.174C13.2228 45.6713 12.3198 46.3222 11.5234 47.1191C9.53201 49.1086 8.43538 51.7555 8.43538 54.5724V56.2199C8.17526 56.34 7.58401 56.762 7.58401 56.762C6.49826 57.6212 6.03538 58.9895 6.37613 60.3326C6.71588 61.6717 7.77151 62.651 9.13014 62.8879L9.18776 62.8979C13.4216 63.6329 17.3727 63.9998 21.0329 63.9998C29.6039 63.9998 36.5799 61.9879 41.8556 57.9801C48.9481 52.5921 50.5812 45.3586 50.9085 43.3426C51.3435 43.0656 51.7785 42.7495 52.2066 42.3853C55.874 39.2675 57.7336 33.9628 57.7336 26.6184C57.7341 21.9358 57.2405 17.767 56.2671 14.2283ZM46.7071 33.5278C46.7368 34.2272 46.7153 34.9222 46.645 35.6088C45.833 36.1818 44.2668 36.4637 42.1678 36.4028C41.0602 36.3711 40.0283 36.2501 39.3429 36.1511V32.8311C41.9697 32.6149 44.4445 31.5868 46.4445 29.8996C46.564 30.9937 46.6508 32.1949 46.7071 33.5278ZM27.7395 11.166C29.1934 12.879 31.4624 15.1042 34.4913 16.7332V22.6322C34.4913 23.209 34.9589 23.6768 35.5359 23.6768H38.0909C38.6681 23.6768 39.1356 23.209 39.1356 22.6322C39.1356 22.0553 38.6679 21.5875 38.0909 21.5875H36.5807V17.6992C37.3759 18.0109 38.2108 18.278 39.0888 18.4807C42.9128 19.3638 45.0803 22.1122 46.0746 27.3652C44.0748 29.5438 41.2677 30.7846 38.2982 30.7846C32.4762 30.7846 27.7395 26.0481 27.7395 20.2259V11.166ZM31.1712 30.6692C32.9316 31.8743 35.0104 32.6464 37.2536 32.8307V34.3084C33.1127 37.7043 32.0959 40.936 31.1126 44.0642C30.4826 46.0682 29.8806 47.9806 28.4087 49.8731C27.3982 47.8536 25.7584 46.203 23.7475 45.178C28.3012 43.2975 31.5143 38.8097 31.5143 33.5849C31.5143 32.5813 31.3951 31.6052 31.1712 30.6692ZM28.6774 29.7116C26.9143 29.5403 23.9118 28.9662 21.9497 27.0552C20.9089 26.0416 20.2859 24.7473 20.0898 23.1973C23.9979 23.6127 27.2672 26.1926 28.6774 29.7116ZM8.53001 33.5847C8.53001 33.0011 8.58089 32.4223 8.67651 31.8532C10.4968 31.7592 14.6998 31.2432 17.4632 28.5518C18.0789 27.9521 18.583 27.2832 18.9775 26.5497C19.372 27.2832 19.876 27.9521 20.4919 28.5518C23.2557 31.2436 27.4589 31.7592 29.2788 31.8532C29.3732 32.4167 29.4249 32.9947 29.4249 33.5847C29.4249 39.3455 24.7383 44.0321 18.9775 44.0321C13.2168 44.0321 8.53001 39.3455 8.53001 33.5847ZM18.9778 46.1215C20.9559 46.1216 22.7762 46.8066 24.2177 47.9493C22.8302 49.3279 20.9689 50.1044 18.9784 50.1044C16.985 50.1044 15.1215 49.3267 13.7335 47.946C15.2199 46.7646 17.0484 46.1215 18.9778 46.1215ZM13.9073 61.4733C12.4906 61.308 11.0385 61.0989 9.54614 60.8397L9.49026 60.83C8.94514 60.735 8.53826 60.3571 8.40188 59.8191C8.26438 59.2771 8.44351 58.7469 8.88101 58.4005L8.99326 58.3117C9.40539 57.9854 9.95014 57.8886 10.4515 58.0526C12.0393 58.5729 13.2528 58.7877 14.0645 58.8731L13.9073 61.4733ZM11.102 56.0676C10.9119 56.0054 10.719 55.9607 10.5251 55.9306V54.5731C10.5251 52.6895 11.1385 50.902 12.2679 49.4347C14.0445 51.1999 16.4287 52.1939 18.9785 52.1939C21.5257 52.1939 23.9075 51.201 25.6837 49.4379C26.6474 50.6934 27.2658 52.2256 27.3993 53.8932C21.5878 56.0897 15.5216 56.7872 15.0884 56.8347C14.941 56.8399 13.5388 56.866 11.102 56.0676ZM40.5583 56.3427C34.6733 60.7956 26.4255 62.5831 15.9875 61.685L16.1617 58.8079C17.803 58.5874 21.5122 57.9966 25.5658 56.7329C32.9013 54.4456 37.5629 51.1802 39.4209 47.0275C39.6566 46.5008 39.4207 45.883 38.8942 45.6472C38.3677 45.412 37.7496 45.6473 37.5139 46.1741C36.1438 49.2365 32.9606 51.464 29.4091 53.0647C29.3636 52.7484 29.3029 52.4371 29.2299 52.1304C31.5551 49.6216 32.3433 47.1171 33.1061 44.6906C33.9131 42.1233 34.6831 39.676 37.2572 37.114C37.2909 37.5805 37.6323 37.972 38.0971 38.0633C38.4919 38.141 40.4624 38.5048 42.6477 38.5048C43.8307 38.5048 45.0761 38.3976 46.1687 38.0811C45.6072 40.0427 44.6265 41.8773 43.2673 43.4623C43.0148 43.7567 42.9463 44.1666 43.0892 44.5271C43.2318 44.8876 43.5627 45.1392 43.9481 45.181C43.9892 45.1855 44.2122 45.2075 44.583 45.2075C45.3457 45.2075 46.8167 45.1115 48.5092 44.5121C47.7768 47.2501 45.7751 52.3951 40.5583 56.3427Z" fill="white"/>
<path d="M32.4728 17.5274L30.7363 17.3695C30.1636 17.3178 29.6536 17.7408 29.6016 18.3153C29.5491 18.8899 29.9727 19.398 30.5472 19.4501L32.2837 19.608C32.3157 19.6109 32.3478 19.6124 32.3796 19.6124C32.9137 19.6124 33.3693 19.2045 33.4187 18.6623C33.4708 18.0878 33.0475 17.5796 32.4728 17.5274Z" fill="white"/>
<path d="M40.1671 26.0033C39.7592 25.5952 39.0977 25.5953 38.6898 26.0033C38.2558 26.4373 37.6787 26.6764 37.0647 26.6764C36.4508 26.6764 35.8738 26.4374 35.4397 26.0033C35.0317 25.5953 34.3702 25.5952 33.9624 26.0033C33.5543 26.4113 33.5543 27.0727 33.9623 27.4806C34.7908 28.3092 35.8927 28.7657 37.0647 28.7657C38.2367 28.7657 39.3386 28.3093 40.1672 27.4806C40.5752 27.0726 40.5752 26.4112 40.1671 26.0033Z" fill="white"/>
</svg>
