<svg width="60" height="60" viewBox="0 0 60 60" fill="none" xmlns="http://www.w3.org/2000/svg">
<path d="M58.978 5.26136C59.5425 5.26136 60 4.80374 60 4.23937V1.02199C60 0.457616 59.5426 0 58.978 0H12.7304C12.1661 0 11.7084 0.457616 11.7084 1.02199V47.2694C11.7084 47.8337 12.1661 48.2914 12.7304 48.2914H58.9778C59.5423 48.2914 59.9998 47.8337 59.9998 47.2694V7.64588C59.9998 7.08151 59.5424 6.62389 58.9778 6.62389C58.4133 6.62389 57.9558 7.08151 57.9558 7.64588V25.1555H53.8971C53.3326 25.1555 52.8751 25.6132 52.8751 26.1775C52.8751 26.7419 53.3325 27.1995 53.8971 27.1995H57.9558V46.2475H28.757V41.3025C28.757 40.7382 28.2993 40.2805 27.735 40.2805C27.1706 40.2805 26.713 40.7382 26.713 41.3025V46.2475H13.7524V2.04398H26.7131V33.9445C26.7131 34.5088 27.1707 34.9665 27.7351 34.9665C28.2995 34.9665 28.7571 34.5088 28.7571 33.9445V27.1995H46.9479C47.5124 27.1995 47.9699 26.7419 47.9699 26.1775C47.9699 25.6132 47.5125 25.1555 46.9479 25.1555H28.757V2.04398H57.956V4.23937C57.956 4.80374 58.4134 5.26136 58.978 5.26136Z" fill="white"/>
<path d="M8.63445 5.89815L5.26216 0.481874C5.07559 0.182226 4.74747 0 4.39462 0C4.04165 0 3.71364 0.182226 3.52708 0.481874L0.154666 5.89815C-0.0415059 6.21327 -0.0514668 6.60995 0.128767 6.93444C0.309001 7.25893 0.651071 7.46026 1.0222 7.46026H3.37263V11.7338C3.37263 12.2982 3.83024 12.7558 4.39462 12.7558C4.95899 12.7558 5.41661 12.2982 5.41661 11.7338V7.46026H7.76703C8.13817 7.46026 8.48024 7.25905 8.66047 6.93444C8.8407 6.60983 8.83074 6.21315 8.63445 5.89815ZM2.86239 5.41628L4.3945 2.95558L5.92661 5.41628H2.86239Z" fill="white"/>
<path d="M8.66011 41.3575C8.47987 41.033 8.1378 40.8318 7.76667 40.8318H5.41625V14.4595C5.41625 13.8951 4.95863 13.4375 4.39426 13.4375C3.82988 13.4375 3.37227 13.8951 3.37227 14.4595V40.8317H1.02196C0.650827 40.8317 0.308757 41.0329 0.128523 41.3575C-0.0517109 41.6821 -0.04175 42.0788 0.154421 42.3938L3.52672 47.8101C3.71328 48.1097 4.04129 48.2919 4.39426 48.2919C4.74734 48.2919 5.07535 48.1097 5.26179 47.8101L8.63409 42.3938C8.8305 42.0785 8.84046 41.682 8.66011 41.3575ZM4.39437 45.3365L2.86215 42.8758H5.92636L4.39437 45.3365Z" fill="white"/>
<path d="M59.5181 54.7376L54.1019 51.3653C53.7868 51.1691 53.3901 51.1593 53.0656 51.3394C52.7411 51.5196 52.5399 51.8617 52.5399 52.2329V54.5833H19.1687V52.2329C19.1687 51.8617 18.9675 51.5196 18.643 51.3394C18.3185 51.1593 17.9219 51.1691 17.6066 51.3653L12.1903 54.7376C11.8907 54.9242 11.7084 55.2522 11.7084 55.6051C11.7084 55.9581 11.8907 56.2861 12.1903 56.4727L17.6066 59.845C17.7716 59.9478 17.9591 59.9993 18.1467 59.9993C18.3174 59.9993 18.4883 59.9567 18.6429 59.8709C18.9675 59.6906 19.1687 59.3486 19.1687 58.9774V56.627H52.5398V58.9774C52.5398 59.3486 52.7412 59.6906 53.0655 59.8709C53.2201 59.9568 53.391 59.9993 53.5617 59.9993C53.7494 59.9993 53.9369 59.9476 54.1019 59.845L59.5181 56.4727C59.8178 56.2861 60 55.9581 60 55.6051C60 55.2521 59.8178 54.9242 59.5181 54.7376ZM17.1247 57.1373L14.664 55.6051L17.1247 54.073V57.1373ZM54.5837 57.1373V54.073L57.0447 55.6051L54.5837 57.1373Z" fill="white"/>
</svg>
