<svg width="308" height="63" viewBox="0 0 308 63" fill="none" xmlns="http://www.w3.org/2000/svg">
<path fill-rule="evenodd" clip-rule="evenodd" d="M16.5862 8.99909H25.5057V16.4485L42.0924 0L64.2338 21.957L53.9079 32.1973L42.0924 20.4805L10.3263 51.9824L0 41.7421L16.5862 25.294V8.99909Z" fill="#FCB813"/>
<path d="M95.5301 21.2578L53.4377 63L31.2962 41.043L41.6225 30.8027L53.4377 42.5194L85.2038 11.0176L95.5301 21.2578Z" fill="#ffffff"/>
<path d="M136.516 37.7843C133.036 37.7843 130.084 37.3083 127.661 36.3561C125.238 35.4042 123.149 34.1398 121.392 32.5643L126.515 25.1774C127.751 26.3592 129.255 27.3604 131.028 28.1812C132.8 29.0024 134.792 29.4127 137.004 29.4127C137.947 29.4127 138.785 29.2812 139.517 29.0189C140.248 28.7563 140.614 28.2965 140.614 27.6397C140.614 27.1147 140.167 26.7287 139.272 26.4826C138.378 26.2365 137.256 25.9985 135.906 25.7687C134.556 25.5388 133.101 25.2352 131.539 24.8576C129.978 24.48 128.523 23.9054 127.173 23.134C125.823 22.3626 124.701 21.3115 123.807 19.9824C122.912 18.6525 122.465 16.9046 122.465 14.7377C122.465 13.3592 122.749 12.0128 123.318 10.6999C123.888 9.38655 124.742 8.22097 125.88 7.20312C127.018 6.18526 128.425 5.37298 130.1 4.76551C131.775 4.15804 133.734 3.85449 135.979 3.85449C138.646 3.85449 141.15 4.23209 143.492 4.98729C145.834 5.7421 147.931 6.89147 149.785 8.43426L144.516 15.4759C143.085 14.3925 141.524 13.5802 139.833 13.0383C138.142 12.4968 136.515 12.2261 134.954 12.2261C133.978 12.2261 133.32 12.3657 132.978 12.6445C132.637 12.9238 132.466 13.2767 132.466 13.7033C132.466 14.2286 132.913 14.6224 133.808 14.8851C134.71 15.1477 135.824 15.4019 137.166 15.6483C138.499 15.8944 139.963 16.2149 141.541 16.6087C143.126 17.0025 144.581 17.5772 145.915 18.332C147.257 19.0872 148.371 20.1047 149.273 21.3852C150.168 22.6653 150.615 24.3235 150.615 26.3588C150.615 28.1642 150.29 29.7734 149.631 31.1846C148.98 32.5967 148.045 33.7946 146.842 34.7797C145.631 35.7648 144.151 36.5115 142.402 37.0206C140.654 37.5294 138.695 37.7839 136.516 37.7839L136.516 37.7843ZM153.592 37.1934V13.4082H162.374V37.1934H153.592ZM183.206 37.1934V24.045C183.206 22.7973 182.896 21.9194 182.279 21.4103C181.661 20.9016 180.831 20.6474 179.79 20.6474C178.782 20.6474 177.993 20.8522 177.424 21.2629C176.855 21.6733 176.392 22.0918 176.034 22.5188V37.1938H167.252V13.4086H176.034V16.117C176.717 15.3286 177.717 14.5823 179.034 13.8761C180.351 13.1699 182.051 12.8173 184.132 12.8173C185.498 12.8173 186.677 13.0144 187.669 13.4086C188.662 13.8024 189.474 14.3358 190.109 15.0089C190.743 15.6819 191.215 16.478 191.524 17.3971C191.833 18.3166 191.987 19.2851 191.987 20.3026V37.1938H183.205L183.206 37.1934ZM208.478 37.7843C206.396 37.7843 204.534 37.4476 202.891 36.7749C201.249 36.1015 199.866 35.1909 198.744 34.0415C197.622 32.8925 196.76 31.563 196.159 30.0526C195.557 28.5422 195.256 26.9504 195.256 25.2757C195.256 23.6014 195.557 22.0174 196.159 20.5236C196.76 19.0298 197.622 17.7084 198.744 16.5594C199.866 15.41 201.249 14.4994 202.891 13.8263C204.534 13.1529 206.396 12.8166 208.478 12.8166C210.559 12.8166 212.429 13.1529 214.088 13.8263C215.747 14.4994 217.137 15.41 218.259 16.5594C219.381 17.7084 220.243 19.0298 220.845 20.5236C221.447 22.0174 221.747 23.601 221.747 25.2757C221.747 26.9501 221.447 28.5422 220.845 30.0526C220.243 31.563 219.381 32.8925 218.259 34.0415C217.137 35.1909 215.747 36.1015 214.088 36.7749C212.429 37.4476 210.559 37.7843 208.478 37.7843ZM208.478 29.9546C209.843 29.9546 210.892 29.5111 211.624 28.6248C212.356 27.7384 212.722 26.6222 212.722 25.2761C212.722 23.9628 212.356 22.8628 211.624 21.9769C210.892 21.0905 209.843 20.6474 208.478 20.6474C207.111 20.6474 206.071 21.0905 205.355 21.9769C204.639 22.8632 204.282 23.9632 204.282 25.2761C204.282 26.6222 204.639 27.7384 205.355 28.6248C206.071 29.5111 207.111 29.9546 208.478 29.9546ZM240.97 37.1934V24.045C240.97 22.7973 240.661 21.9194 240.043 21.4103C239.425 20.9016 238.595 20.6474 237.554 20.6474C236.546 20.6474 235.758 20.8522 235.189 21.2629C234.619 21.6733 234.156 22.0918 233.798 22.5188V37.1938H225.016V13.4086H233.798V16.117C234.481 15.3286 235.481 14.5823 236.798 13.8761C238.116 13.1699 239.815 12.8173 241.897 12.8173C243.263 12.8173 244.441 13.0144 245.434 13.4086C246.426 13.8024 247.239 14.3358 247.873 15.0089C248.507 15.6819 248.979 16.478 249.288 17.3971C249.597 18.3166 249.751 19.2851 249.751 20.3026V37.1938H240.969L240.97 37.1934ZM254.63 37.1934V13.4082H263.412V37.1934H254.63ZM298.392 37.1934V23.3064C298.392 22.584 298.189 21.9603 297.782 21.435C297.376 20.9096 296.685 20.647 295.709 20.647C294.733 20.647 293.96 20.8684 293.391 21.3115C292.822 21.7551 292.391 22.157 292.098 22.5184V37.1934H283.317V23.3064C283.317 22.584 283.122 21.9603 282.731 21.435C282.341 20.9096 281.642 20.647 280.634 20.647C279.69 20.647 278.934 20.8684 278.365 21.3115C277.795 21.7551 277.365 22.157 277.072 22.5184V37.1934H268.29V13.4082H277.072V16.1166C277.332 15.788 277.706 15.427 278.194 15.0332C278.682 14.639 279.259 14.278 279.926 13.9497C280.593 13.6215 281.349 13.3507 282.195 13.1371C283.04 12.9238 283.935 12.8173 284.878 12.8173C286.537 12.8173 287.943 13.1459 289.098 13.8024C290.252 14.4589 291.106 15.5257 291.659 17.0033C291.984 16.478 292.423 15.9692 292.977 15.4767C293.53 14.9842 294.155 14.541 294.855 14.1472C295.554 13.7534 296.335 13.4333 297.196 13.1868C298.058 12.9408 298.961 12.8177 299.904 12.8177C302.083 12.8177 303.84 13.3924 305.173 14.541C306.506 15.6904 307.173 17.4958 307.173 19.9577V37.1938H298.391L298.392 37.1934Z" fill="#ffffff"/>
<path d="M162.374 3.2168H153.592V10.2778H162.374V3.2168Z" fill="#FCB813"/>
<path d="M263.5 3.2168H254.718V10.2778H263.5V3.2168Z" fill="#FCB813"/>
<path d="M126.263 51.1568V57.7063H124.505V55.4485H123.388L122.116 57.7063H120.328L121.768 55.1511C121.374 54.9694 121.07 54.7234 120.855 54.4109C120.642 54.1008 120.534 53.7472 120.534 53.3507C120.534 52.7158 120.782 52.197 121.276 51.7897C121.772 51.3844 122.435 51.1738 123.264 51.1572H126.262L126.263 51.1568ZM123.296 54.2208H124.506V52.5712H123.357C123.044 52.5712 122.79 52.6518 122.594 52.8153C122.398 52.9785 122.3 53.1748 122.3 53.4085C122.3 53.6403 122.394 53.8343 122.581 53.9855C122.769 54.1386 123.007 54.2173 123.296 54.2212V54.2208ZM131.219 53.0733C131.219 52.8438 131.144 52.666 130.989 52.538C130.837 52.4119 130.62 52.3478 130.339 52.3478C130.051 52.3478 129.816 52.408 129.634 52.528C129.453 52.6498 129.363 52.8196 129.363 53.0406H127.598C127.598 52.4454 127.846 51.9633 128.342 51.5915C128.84 51.2193 129.474 51.0334 130.247 51.0334C131.1 51.0334 131.767 51.1988 132.255 51.5294C132.74 51.8603 132.984 52.3293 132.984 52.9372C132.984 53.2265 132.895 53.4934 132.717 53.7371C132.54 53.9813 132.292 54.1757 131.971 54.3199C132.724 54.5849 133.101 55.0932 133.101 55.8477C133.101 56.4513 132.84 56.933 132.321 57.2929C131.802 57.6508 131.11 57.8305 130.247 57.8305C129.446 57.8305 128.785 57.6446 128.268 57.2724C127.751 56.9002 127.493 56.3996 127.493 55.7694H129.259C129.259 55.9908 129.359 56.1724 129.557 56.309C129.757 56.4478 130.018 56.5157 130.338 56.5157C130.653 56.5157 130.897 56.4432 131.072 56.2966C131.247 56.1497 131.335 55.9576 131.335 55.7219C131.335 55.4326 131.252 55.2259 131.085 55.1017C130.918 54.9775 130.668 54.9158 130.332 54.9158H129.373V53.7745H130.395C130.943 53.7579 131.218 53.5242 131.218 53.0737L131.219 53.0733ZM136.064 53.0795H137.327C137.897 53.0795 138.399 53.1744 138.83 53.3626C139.262 53.5528 139.591 53.8235 139.823 54.1772C140.052 54.5305 140.167 54.9401 140.167 55.4072C140.167 56.098 139.911 56.6522 139.395 57.0738C138.88 57.4954 138.178 57.7063 137.29 57.7063H134.292V51.1568H136.064V53.0795H136.064ZM142.977 57.7063H141.211V51.1568H142.977V57.7063ZM136.064 54.4935V56.3047H137.315C137.665 56.3047 137.934 56.2241 138.121 56.0648C138.309 55.9055 138.403 55.6864 138.403 55.4118C138.403 55.1306 138.311 54.9093 138.128 54.7419C137.944 54.5764 137.673 54.4939 137.315 54.4939H136.064V54.4935ZM147.115 55.2876H146.408V57.7063H144.642V51.1568H146.408V53.6129H147.035L148.478 51.1568H150.707L148.545 54.2682L150.909 57.7063H148.558L147.115 55.2876ZM157.435 56.4162C157.76 56.4162 158.025 56.3275 158.229 56.1493C158.433 55.9715 158.538 55.7358 158.546 55.4404H160.201C160.196 55.8851 160.075 56.2924 159.834 56.6623C159.594 57.0325 159.267 57.3199 158.848 57.5243C158.431 57.7291 157.97 57.8301 157.465 57.8301C156.521 57.8301 155.775 57.5324 155.228 56.9369C154.684 56.3417 154.411 55.5187 154.411 54.4684V54.3527C154.411 53.3414 154.682 52.5376 155.224 51.9359C155.764 51.3346 156.508 51.0326 157.452 51.0326C158.278 51.0326 158.941 51.266 159.439 51.7315C159.939 52.1966 160.192 52.8168 160.2 53.5921H158.545C158.537 53.2527 158.432 52.9761 158.228 52.7652C158.024 52.5519 157.755 52.4466 157.421 52.4466C157.011 52.4466 156.7 52.5951 156.489 52.8913C156.281 53.189 156.177 53.6704 156.177 54.3384V54.5182C156.177 55.1943 156.279 55.678 156.487 55.9734C156.696 56.2688 157.011 56.4158 157.434 56.4158L157.435 56.4162ZM166.697 52.5708H164.579V57.7063H162.807V52.5708H160.724V51.1568H166.697V52.5708ZM173.533 54.4912C173.533 55.5025 173.302 56.3105 172.839 56.9184C172.378 57.5262 171.752 57.8301 170.966 57.8301C170.299 57.8301 169.759 57.6007 169.349 57.1394V60.2242H167.583V51.1568H169.219L169.282 51.7974C169.709 51.2868 170.266 51.0326 170.956 51.0326C171.769 51.0326 172.403 51.3323 172.855 51.9297C173.305 52.5276 173.533 53.3503 173.533 54.4005V54.4915L173.533 54.4912ZM171.767 54.3589C171.767 53.7468 171.659 53.2754 171.44 52.9449C171.223 52.612 170.906 52.4466 170.491 52.4466C169.937 52.4466 169.557 52.6576 169.349 53.0772V55.767C169.564 56.1994 169.949 56.4162 170.504 56.4162C171.346 56.4162 171.767 55.7296 171.767 54.3589ZM174.348 54.3712C174.348 53.7202 174.475 53.1412 174.727 52.6325C174.98 52.1241 175.342 51.7288 175.818 51.4499C176.291 51.1707 176.841 51.0322 177.469 51.0322C178.361 51.0322 179.089 51.303 179.654 51.8445C180.217 52.3841 180.532 53.12 180.596 54.0484L180.609 54.4969C180.609 55.504 180.325 56.3101 179.76 56.918C179.193 57.5258 178.434 57.8298 177.482 57.8298C176.529 57.8298 175.768 57.5258 175.201 56.9203C174.631 56.3144 174.348 55.4917 174.348 54.4495V54.3708V54.3712ZM176.114 54.4954C176.114 55.1175 176.231 55.5935 176.468 55.9221C176.704 56.2507 177.042 56.4162 177.482 56.4162C177.909 56.4162 178.243 56.253 178.483 55.9283C178.725 55.6035 178.843 55.0828 178.843 54.3674C178.843 53.7576 178.725 53.2839 178.483 52.9491C178.243 52.6144 177.905 52.447 177.469 52.447C177.038 52.447 176.704 52.6144 176.468 52.9472C176.231 53.2801 176.114 53.7969 176.114 54.4954ZM185.681 51.1568H187.447V57.7063H185.681V53.6623L183.471 57.7063H181.699V51.1568H183.471V55.1943L185.681 51.1568ZM194.281 52.5708H192.163V57.7063H190.39V52.5708H188.308V51.1568H194.281V52.5708ZM197.821 57.8301C196.851 57.8301 196.061 57.5347 195.452 56.9454C194.844 56.356 194.54 55.5703 194.54 54.5884V54.419C194.54 53.7614 194.669 53.1721 194.925 52.6533C195.181 52.1342 195.544 51.7334 196.015 51.4542C196.486 51.173 197.022 51.0326 197.625 51.0326C198.529 51.0326 199.24 51.3157 199.759 51.88C200.278 52.4466 200.537 53.2484 200.537 54.2864V55.0018H196.33C196.386 55.4296 196.559 55.7709 196.845 56.0289C197.133 56.2877 197.495 56.4158 197.935 56.4158C198.617 56.4158 199.146 56.1716 199.53 55.6861L200.397 56.6495C200.133 57.0198 199.774 57.311 199.322 57.5177C198.871 57.7264 198.369 57.8301 197.821 57.8301ZM197.618 52.4466C197.268 52.4466 196.985 52.5646 196.766 52.7999C196.549 53.0355 196.409 53.3726 196.349 53.8112H198.803V53.6704C198.795 53.282 198.69 52.98 198.486 52.7671C198.281 52.5538 197.994 52.4466 197.618 52.4466ZM207.282 51.1564V57.706H205.516V52.5704H203.958L203.85 54.5922C203.779 55.6714 203.566 56.4571 203.208 56.9492C202.85 57.4414 202.316 57.6936 201.607 57.706H201.009L200.992 56.292L201.211 56.2731C201.528 56.2484 201.762 56.0621 201.908 55.715C202.054 55.3675 202.145 54.7762 202.183 53.9392L202.304 51.1564H207.282H207.282ZM210.531 53.0791H211.797C212.366 53.0791 212.866 53.174 213.298 53.3622C213.729 53.5524 214.061 53.8231 214.291 54.1768C214.522 54.5301 214.637 54.9397 214.637 55.4068C214.637 56.0976 214.378 56.6518 213.863 57.0734C213.348 57.495 212.648 57.706 211.76 57.706H208.762V51.1564H210.531V53.0791ZM210.531 54.4931V56.3043H211.785C212.135 56.3043 212.403 56.2237 212.591 56.0644C212.777 55.9051 212.871 55.6861 212.871 55.4114C212.871 55.1303 212.779 54.9089 212.595 54.7415C212.414 54.576 212.143 54.4935 211.784 54.4935H210.531L210.531 54.4931ZM221.356 57.706H219.586V55.1877H217.393V57.706H215.627V51.1564H217.393V53.7738H219.586V51.1564H221.356V57.706ZM224.614 53.0791H225.877C226.447 53.0791 226.949 53.174 227.381 53.3622C227.812 53.5524 228.141 53.8231 228.373 54.1768C228.602 54.5301 228.717 54.9397 228.717 55.4068C228.717 56.0976 228.461 56.6518 227.945 57.0734C227.43 57.495 226.728 57.706 225.84 57.706H222.842V51.1564H224.615V53.0791H224.614ZM231.527 57.706H229.761V51.1564H231.527V57.706ZM224.614 54.4931V56.3043H225.865C226.215 56.3043 226.484 56.2237 226.672 56.0644C226.859 55.9051 226.953 55.6861 226.953 55.4114C226.953 55.1303 226.861 54.9089 226.678 54.7415C226.495 54.576 226.223 54.4935 225.865 54.4935H224.614V54.4931ZM235.592 53.1123L236.703 51.1568H238.592L236.709 54.3654L238.671 57.7063H236.778L235.598 55.6471L234.427 57.7063H232.527L234.487 54.3654L232.613 51.1568H234.506L235.592 53.1123ZM248.041 52.5708H245.922V57.7063H244.15V52.5708H242.068V51.1568H248.041V52.5708ZM251.58 57.8301C250.611 57.8301 249.821 57.5347 249.212 56.9454C248.603 56.356 248.299 55.5703 248.299 54.5884V54.419C248.299 53.7614 248.428 53.1721 248.685 52.6533C248.941 52.1342 249.304 51.7334 249.775 51.4542C250.246 51.173 250.782 51.0326 251.384 51.0326C252.289 51.0326 253 51.3157 253.519 51.88C254.038 52.4466 254.297 53.2484 254.297 54.2864V55.0018H250.09C250.146 55.4296 250.319 55.7709 250.605 56.0289C250.893 56.2877 251.255 56.4158 251.695 56.4158C252.377 56.4158 252.906 56.1716 253.29 55.6861L254.157 56.6495C253.893 57.0198 253.534 57.311 253.081 57.5177C252.631 57.7264 252.128 57.8301 251.58 57.8301ZM251.378 52.4466C251.028 52.4466 250.744 52.5646 250.526 52.7999C250.309 53.0355 250.169 53.3726 250.109 53.8112H252.562V53.6704C252.554 53.282 252.45 52.98 252.245 52.7671C252.041 52.5538 251.753 52.4466 251.378 52.4466ZM257.812 53.1123L258.923 51.1568H260.812L258.929 54.3654L260.891 57.7063H258.998L257.818 55.6471L256.646 57.7063H254.747L256.707 54.3654L254.833 51.1568H256.726L257.812 53.1123ZM267.389 57.706H265.619V55.1877H263.427V57.706H261.66V51.1564H263.427V53.7738H265.619V51.1564H267.389V57.706ZM268.48 54.3712C268.48 53.7202 268.607 53.1412 268.859 52.6325C269.111 52.1241 269.474 51.7288 269.949 51.4499C270.422 51.1707 270.972 51.0322 271.6 51.0322C272.493 51.0322 273.22 51.303 273.785 51.8445C274.348 52.3841 274.663 53.12 274.727 54.0484L274.74 54.4969C274.74 55.504 274.456 56.3101 273.891 56.918C273.324 57.5258 272.566 57.8298 271.613 57.8298C270.66 57.8298 269.899 57.5258 269.332 56.9203C268.763 56.3144 268.48 55.4917 268.48 54.4495V54.3708V54.3712ZM270.245 54.4954C270.245 55.1175 270.362 55.5935 270.6 55.9221C270.835 56.2507 271.173 56.4162 271.613 56.4162C272.041 56.4162 272.374 56.253 272.614 55.9283C272.856 55.6035 272.975 55.0828 272.975 54.3674C272.975 53.7576 272.856 53.2839 272.614 52.9491C272.374 52.6144 272.036 52.447 271.601 52.447C271.169 52.447 270.835 52.6144 270.6 52.9472C270.362 53.2801 270.245 53.7969 270.245 54.4954ZM281.478 51.1568V57.7063H279.712V52.5708H278.154L278.046 54.5926C277.976 55.6718 277.763 56.4574 277.404 56.9496C277.046 57.4417 276.512 57.694 275.803 57.7063H275.205L275.188 56.2924L275.407 56.2735C275.724 56.2488 275.958 56.0625 276.104 55.7154C276.25 55.3679 276.342 54.7766 276.379 53.9396L276.5 51.1568H281.479H281.478ZM282.564 54.3712C282.564 53.7202 282.691 53.1412 282.943 52.6325C283.196 52.1241 283.558 51.7288 284.034 51.4499C284.507 51.1707 285.057 51.0322 285.685 51.0322C286.577 51.0322 287.305 51.303 287.87 51.8445C288.433 52.3841 288.748 53.12 288.812 54.0484L288.825 54.4969C288.825 55.504 288.541 56.3101 287.976 56.918C287.409 57.5258 286.65 57.8298 285.698 57.8298C284.745 57.8298 283.984 57.5258 283.417 56.9203C282.847 56.3144 282.564 55.4917 282.564 54.4495V54.3708V54.3712ZM284.33 54.4954C284.33 55.1175 284.447 55.5935 284.684 55.9221C284.92 56.2507 285.258 56.4162 285.698 56.4162C286.125 56.4162 286.459 56.253 286.699 55.9283C286.941 55.6035 287.059 55.0828 287.059 54.3674C287.059 53.7576 286.941 53.2839 286.699 52.9491C286.459 52.6144 286.121 52.447 285.685 52.447C285.254 52.447 284.92 52.6144 284.684 52.9472C284.447 53.2801 284.33 53.7969 284.33 54.4954ZM294.416 52.5708H291.681V57.7063H289.915V51.1568H294.416V52.5708ZM299.138 51.1568H300.904V57.7063H299.138V53.6623L296.928 57.7063H295.156V51.1568H296.928V55.1943L299.138 51.1568ZM306.235 51.1568H308.001V57.7063H306.235V53.6623L304.025 57.7063H302.253V51.1568H304.025V55.1943L306.235 51.1568Z" fill="#FCB813"/>
</svg>
