<svg width="74" height="74" viewBox="0 0 74 74" fill="none" xmlns="http://www.w3.org/2000/svg">
<g clip-path="url(#clip0)">
<path d="M70.1933 28.4199L63.8274 27.8064C63.1519 25.0962 62.0613 22.5064 60.5952 20.1285L64.6529 15.23C65.0515 14.7494 65.0184 14.0449 64.5773 13.6038L57.6918 6.71778C57.2508 6.2767 56.5463 6.24422 56.0657 6.6422L51.1636 10.7011C48.7817 9.24558 46.1948 8.15557 43.4893 7.46768L42.8752 1.09296C42.8155 0.472967 42.2942 0 41.6712 0H32.2609C31.6379 0 31.1172 0.472967 31.0575 1.09296L30.4428 7.46768C27.7373 8.15498 25.1505 9.24558 22.7685 10.7011L17.8664 6.64102C17.3864 6.24304 16.6819 6.27552 16.2403 6.7166L9.35479 13.6033C8.91371 14.0449 8.88064 14.7494 9.27921 15.23L13.3357 20.1279C11.8684 22.5058 10.7772 25.0962 10.1011 27.807L3.73883 28.4211C3.12002 28.4813 2.64941 29.0027 2.65236 29.6245V39.3861C2.64882 40.0073 3.11943 40.5293 3.73824 40.5895L10.1082 41.2036C10.7949 43.9085 11.8844 46.496 13.3393 48.8779L9.27862 53.7794C8.86234 54.2819 8.91961 55.0241 9.40852 55.457L14.6312 60.0762C14.8893 60.3047 15.2329 60.4122 15.576 60.3714C15.9185 60.3301 16.2273 60.1447 16.4245 59.8619L23.9305 49.0917C24.2653 48.611 24.2075 47.9592 23.793 47.5447C16.5916 40.3433 16.591 28.6667 23.793 21.4648C30.9949 14.2628 42.6715 14.2628 49.8734 21.4648C57.0754 28.6667 57.0754 40.3433 49.8734 47.5447C49.4536 47.9645 49.4005 48.6264 49.7477 49.1076L57.5177 59.8772C57.7172 60.1541 58.0249 60.3336 58.3644 60.3714C58.7039 60.4092 59.0434 60.3018 59.2991 60.0756L64.5236 55.4581C65.0125 55.0259 65.0704 54.2831 64.6535 53.78L60.594 48.8779C62.0495 46.496 63.1395 43.9091 63.8268 41.2036L70.1933 40.5895C70.8121 40.5293 71.2827 40.0073 71.2792 39.3861V29.6233C71.2821 29.0021 70.8121 28.4801 70.1933 28.4199V28.4199ZM68.8606 38.2873L62.7274 38.8789C62.2066 38.9291 61.7779 39.31 61.6663 39.8213C60.9997 42.8451 59.7874 45.7219 58.0898 48.3117C57.7993 48.7557 57.8324 49.3373 58.1707 49.7453L62.0442 54.4213L58.698 57.3795L52.2961 48.5059C59.7089 40.3285 59.4715 27.6423 51.5834 19.7542C43.4503 11.621 30.2161 11.621 22.083 19.7542C14.1907 27.6464 13.9575 40.3421 21.3815 48.5183L15.2164 57.3648L11.8873 54.4207L15.7602 49.7447C16.0985 49.3355 16.131 48.7545 15.8405 48.3105C14.1423 45.7213 12.9295 42.8445 12.2611 39.8213C12.1513 39.3105 11.7238 38.9297 11.2041 38.8789L5.07093 38.2873V30.7227L11.2041 30.1305C11.7273 30.0797 12.1572 29.6965 12.2664 29.1822C12.9171 26.1578 14.1293 23.2828 15.8393 20.7048C16.1334 20.2602 16.1015 19.6756 15.7614 19.2653L11.8436 14.535L17.172 9.20602L21.9023 13.1232C22.3109 13.4621 22.8925 13.4946 23.3359 13.2035C25.9252 11.5053 28.8019 10.2925 31.8251 9.62466C32.3371 9.51129 32.7173 9.08143 32.7675 8.56004L33.3592 2.41916H40.5729L41.1652 8.56004C41.2154 9.08143 41.5956 9.51129 42.107 9.62466C45.1308 10.2925 48.0075 11.5059 50.5968 13.2041C51.0402 13.4952 51.6218 13.4627 52.0304 13.1238L56.7601 9.20661L62.0885 14.535L58.1713 19.2653C57.8318 19.6756 57.8005 20.2602 58.0945 20.7042C59.8051 23.2822 61.0174 26.1578 61.6687 29.1822C61.7761 29.6959 62.2048 30.0797 62.7268 30.1305L68.8606 30.7222V38.2873Z" fill="white"/>
<path d="M41.1828 55.786V37.4242C44.2309 35.664 46.232 32.3225 46.232 28.8789C46.232 24.1734 43.5412 20.7463 39.0341 19.7124C38.6586 19.6262 38.2653 19.7236 37.9736 19.9746C37.6825 20.2261 37.5278 20.6011 37.5574 20.9849L37.9571 26.1167C36.9474 26.6463 35.7428 26.6469 34.7325 26.1178L35.1624 20.9577C35.1955 20.5609 35.0313 20.1736 34.7231 19.9215C34.4149 19.6693 34.0027 19.5849 33.6207 19.6959C29.4986 20.8898 26.9307 24.435 26.9307 28.9491C26.9307 33.0925 29.1048 36.444 32.7326 37.8965V56.1875C30.1629 57.7044 27.6871 60.7826 27.726 64.6992C27.726 69.3662 30.3867 72.8163 34.8353 73.9294C35.2132 74.0239 35.6129 73.9312 35.9105 73.6802C36.2081 73.4293 36.367 73.0508 36.3374 72.6628L35.9395 67.5316C36.9486 67.002 38.1537 67.0014 39.164 67.5299L38.7342 72.6906C38.7011 73.0874 38.8652 73.4747 39.1735 73.7269C39.4817 73.979 39.8938 74.0634 40.2759 73.9524C44.3779 72.7638 46.9511 69.2363 46.9925 64.7334C46.9931 60.5895 44.7906 57.2386 41.1828 55.786V55.786ZM41.3122 70.8796L41.634 67.0126C41.6682 66.6011 41.4905 66.2007 41.1622 65.9504L41.1167 65.9155C38.9875 64.2994 36.0375 64.3189 33.9301 65.9628C33.6136 66.2125 33.4424 66.604 33.4737 67.0061L33.7825 70.9841C31.4543 69.8238 30.1523 67.6072 30.1523 64.6873C30.121 61.5059 32.3612 58.9982 34.4627 58.0133C34.8861 57.8137 35.1547 57.3862 35.1518 56.9179V37.0398C35.1547 36.5078 34.8081 36.0372 34.2991 35.8819C31.2458 34.9601 29.3534 32.3036 29.3534 28.948C29.3534 26.2454 30.5556 24.011 32.5826 22.7675L32.262 26.6345C32.2278 27.0467 32.4061 27.4476 32.7356 27.6974L32.7805 27.7316C34.9067 29.3471 37.8538 29.33 39.9606 27.6903C39.9712 27.682 39.983 27.6726 39.993 27.6643C40.2942 27.4133 40.4548 27.0319 40.4247 26.641L40.1117 22.6205C42.4866 23.7335 43.8146 25.9401 43.8146 28.8795C43.8146 31.6193 42.0225 34.3838 39.4563 35.6026C39.0347 35.8027 38.7661 36.2279 38.7661 36.6949V56.6422C38.7661 57.1754 39.1156 57.6454 39.6258 57.7995C42.6797 58.7218 44.5757 61.3784 44.5757 64.7228C44.5497 67.4135 43.3375 69.6402 41.3127 70.8796H41.3122Z" fill="white"/>
</g>
<defs>
<clipPath id="clip0">
<rect width="74" height="74" fill="white"/>
</clipPath>
</defs>
</svg>
