<svg width="83" height="83" viewBox="0 0 83 83" fill="none" xmlns="http://www.w3.org/2000/svg">
<g clip-path="url(#clip0)">
<path d="M74.2474 4.03223H20.5767C15.9189 4.03223 12.1293 7.78634 12.1293 12.3858L11.7834 59.6456H1.30934C0.567055 59.6456 0 60.3019 0 61.0442V67.5483C0 73.6369 4.87247 78.6163 10.753 78.8894V78.9675H55.9494V78.8795C56.2854 78.8933 56.4889 78.9675 56.7199 78.9675H56.7521C63.0238 78.9307 68.0794 73.8187 68.0466 67.547V26.2104H81.6906C82.4329 26.2104 83 25.5383 83 24.7967V12.8629C83.0085 8.01277 79.0976 4.06701 74.2474 4.03223V4.03223ZM11.3411 76.2792H11.3319C6.55066 76.2792 2.68826 72.3275 2.68826 67.547V62.3339H45.3644V67.5246C45.3539 70.5502 46.549 73.4551 48.6853 75.5973C48.9124 75.8257 49.15 75.9432 49.3928 76.2792H11.3411ZM65.3583 67.5456C65.3583 72.3275 61.5333 76.2792 56.7501 76.2792H56.7225C51.9157 76.2444 48.0415 72.3321 48.0526 67.5253V61.0442C48.0566 60.2914 47.4613 59.6718 46.7085 59.6456H14.4717L14.8176 12.395C14.8176 9.26895 17.4008 6.72049 20.5767 6.72049H67.9015C66.3697 8.40065 65.3583 10.5264 65.3583 12.899V67.5456ZM80.3117 12.8866V23.5221H68.0466V12.8964C68.0466 9.53213 70.8451 6.72049 74.208 6.72049H74.2454C77.6169 6.75396 80.3275 9.50457 80.3117 12.8767V12.8866Z" fill="white"/>
<path d="M31.5627 37.1171L38.4927 41.855C38.9449 42.1668 39.5428 42.1668 39.995 41.855L46.904 37.1184C49.3042 35.4809 51.0769 32.0576 51.0769 29.1547V19.5686C51.0913 19.0619 50.8117 18.592 50.3602 18.3616L39.8086 13.1715C39.4385 12.9877 39.004 12.9877 38.6338 13.1715L28.102 18.3472C27.6504 18.5776 27.3715 19.0475 27.3866 19.5542V29.1547C27.3866 32.0576 29.1632 35.4809 31.5627 37.1171ZM30.0748 20.3929L39.2317 15.8749L48.3886 20.4054V29.1547C48.3886 31.1794 47.0615 33.7548 45.3873 34.8961L39.216 39.1169L33.0689 34.8968C31.3947 33.7542 30.0748 31.1794 30.0748 29.1547V20.3929Z" fill="white"/>
<path d="M36.9582 31.184C37.2089 31.44 37.5515 31.585 37.9099 31.587H37.9132C38.2702 31.5857 38.6121 31.4426 38.8635 31.1893L44.2105 25.8403C44.7362 25.3153 44.7362 24.4634 44.2112 23.9383C43.6868 23.4126 42.8349 23.4126 42.3098 23.9377L37.9178 28.329L36.1621 26.5563C35.639 26.0287 34.7878 26.0247 34.2601 26.5478C33.7325 27.0709 33.7292 27.9221 34.2516 28.4498L36.9582 31.184Z" fill="white"/>
<path d="M55.9494 45.7002H23.6903C22.948 45.7002 22.3462 46.302 22.3462 47.0443C22.3462 47.7866 22.948 48.3885 23.6903 48.3885H55.9494C56.6917 48.3885 57.2936 47.7866 57.2936 47.0443C57.2936 46.302 56.6917 45.7002 55.9494 45.7002Z" fill="white"/>
<path d="M55.9494 51.917H23.6903C22.948 51.917 22.3462 52.5188 22.3462 53.2611C22.3462 54.0034 22.948 54.6053 23.6903 54.6053H55.9494C56.6917 54.6053 57.2936 54.0034 57.2936 53.2611C57.2936 52.5188 56.6917 51.917 55.9494 51.917Z" fill="white"/>
</g>
<defs>
<clipPath id="clip0">
<rect width="83" height="83" fill="white"/>
</clipPath>
</defs>
</svg>
