<svg width="74" height="74" viewBox="0 0 74 74" fill="none" xmlns="http://www.w3.org/2000/svg">
<g clip-path="url(#clip0)">
<path d="M8.53461 74.0002H65.5259C70.0965 74.0171 73.8141 70.3238 73.8269 65.7532V23.2557C73.8215 18.6676 70.1147 14.944 65.5266 14.9183H62.6141L56.598 2.28634C56.4395 1.95703 56.156 1.7033 55.8105 1.58318C55.465 1.46239 55.0858 1.48398 54.7564 1.64324L45.2712 6.15846L41.3822 0.602665C40.9503 -0.0276179 40.0892 -0.189575 39.4576 0.240961L18.4491 14.9183H8.53461C3.94651 14.944 0.239041 18.6676 0.233643 23.2557V65.7532C0.246464 70.3238 3.96405 74.0171 8.53461 74.0002V74.0002ZM71.0628 56.8976H56.3261C53.2779 56.8976 50.8506 54.3515 50.8506 51.3033V37.7057C50.8411 36.2474 51.4141 34.8458 52.4418 33.8106C53.4696 32.7761 54.8678 32.1937 56.3261 32.1937H71.0628V56.8976ZM59.5537 14.9183H33.1993L54.695 4.69883L59.5537 14.9183ZM39.9097 3.29925L42.7399 7.33333L26.7615 14.9183H23.272L39.9097 3.29925ZM2.99771 23.2557C3.00108 20.1934 5.47228 17.706 8.53461 17.6824H65.5259C68.5889 17.706 71.0594 20.1934 71.0628 23.2557V29.4297H56.3261C54.1349 29.4303 52.0335 30.3042 50.4875 31.857C48.9422 33.4098 48.0777 35.5145 48.0865 37.7057V51.3033C48.0865 55.8759 51.7535 59.6616 56.3261 59.6616H71.0628V65.7532C71.0574 67.2149 70.471 68.6145 69.4324 69.6436C68.3932 70.672 66.9882 71.2449 65.5266 71.2362H8.53461C7.07295 71.2449 5.6673 70.672 4.62875 69.6436C3.5902 68.6145 3.00311 67.2149 2.99771 65.7532V23.2557Z" fill="white"/>
<path d="M54.3044 44.5043C54.3044 47.0328 56.3545 49.0822 58.8824 49.0822C61.411 49.0822 63.4604 47.0328 63.4604 44.5043C63.4604 41.9764 61.411 39.9263 58.8824 39.9263C56.3552 39.929 54.3078 41.977 54.3044 44.5043ZM58.8824 42.6903C59.8845 42.6903 60.6963 43.5028 60.6963 44.5043C60.6963 45.5064 59.8845 46.3182 58.8824 46.3182C57.881 46.3182 57.0685 45.5064 57.0685 44.5043C57.0699 43.5028 57.881 42.6917 58.8824 42.6903Z" fill="white"/>
</g>
<defs>
<clipPath id="clip0">
<rect width="74" height="74" fill="white"/>
</clipPath>
</defs>
</svg>
